<?xml version="1.0" encoding="utf-8"?>
<!-- Generator: Adobe Illustrator 27.6.1, SVG Export Plug-In . SVG Version: 6.00 Build 0)  -->
<!DOCTYPE svg PUBLIC "-//W3C//DTD SVG 1.1//EN" "http://www.w3.org/Graphics/SVG/1.1/DTD/svg11.dtd" [
	<!ENTITY ns_extend "http://ns.adobe.com/Extensibility/1.0/">
	<!ENTITY ns_ai "http://ns.adobe.com/AdobeIllustrator/10.0/">
	<!ENTITY ns_graphs "http://ns.adobe.com/Graphs/1.0/">
	<!ENTITY ns_vars "http://ns.adobe.com/Variables/1.0/">
	<!ENTITY ns_imrep "http://ns.adobe.com/ImageReplacement/1.0/">
	<!ENTITY ns_sfw "http://ns.adobe.com/SaveForWeb/1.0/">
	<!ENTITY ns_custom "http://ns.adobe.com/GenericCustomNamespace/1.0/">
	<!ENTITY ns_adobe_xpath "http://ns.adobe.com/XPath/1.0/">
]>
<svg version="1.1" id="Layer_1" xmlns:x="&ns_extend;" xmlns:i="&ns_ai;" xmlns:graph="&ns_graphs;"
	 xmlns="http://www.w3.org/2000/svg" xmlns:xlink="http://www.w3.org/1999/xlink" x="0px" y="0px" width="270px" height="87.4px"
	 viewBox="0 0 270 87.4" style="enable-background:new 0 0 270 87.4;" xml:space="preserve">
<style type="text/css">
	.st0{fill:#FFFFFF;}
	.st1{fill:#EE7623;}
	.st2{fill:#00416B;}
</style>
<metadata>
	<sfw  xmlns="&ns_sfw;">
		<slices></slices>
		<sliceSourceBounds  bottomLeftOrigin="true" height="87.4" width="270" x="0" y="-17.4"></sliceSourceBounds>
	</sfw>
</metadata>
<g>
	<path class="st0" d="M69.3,70.4V3.5H7.1c4.2,9.8,5.4,24,2.1,41.7c-1.5,7-3.7,13.8-6.7,20.3C1,68.5,0,70.4,0,70.4H69.3z"/>
	<path class="st1" d="M69.3,70.4V3.5H26.4c18,5.1,30.7,14.9,31,27.2C58,61.2,3.6,70.4,3.6,70.4L69.3,70.4L69.3,70.4z M14.1,4.1
		c5.5,2.9,9.7,7.7,11.9,13.5c0.9,2.1,1.4,4.4,1.7,6.7c5.5,0.6,11,1.6,16.4,3v0C41.7,16,31.5,7.2,14.1,4.1z M7.7,4.9
		c2,5.8,3.2,12,3.4,18.2c4.9,0.3,9.4,0.5,13.6,1c-0.5-2.8-1.4-5.5-2.7-8C19.1,10.4,13.8,6.4,7.7,4.9L7.7,4.9L7.7,4.9z M2.4,65.5
		c7.6-4,13.9-10.2,17.9-17.8c-6.9,0.7-11.8,0.9-11.8,0.8C6.9,54.4,4.9,60,2.4,65.5L2.4,65.5L2.4,65.5z M21.7,44.7
		c2.5-5.5,3.6-11.6,3.2-17.6c-4.6-0.5-9.3-0.9-13.9-1.1C11,32,10.4,38.1,9.3,44c-0.1,0.6-0.1,0.8-0.3,1.4h0.8
		C14.1,45.3,17.5,45.1,21.7,44.7C21.7,44.6,21.7,44.7,21.7,44.7z M7.8,65.8c14.8-2.1,27.1-11.2,33-21.3c-5.6,1.2-11.3,2.2-17,2.8
		C20.4,54.9,14.8,61.3,7.8,65.8L7.8,65.8z M52.2,40.6c-2.4,1.2-4.9,2.1-7.4,2.8C42,49,38,53.9,33,57.6C42,52.8,48.9,46.9,52.2,40.6
		C52.2,40.6,52.2,40.6,52.2,40.6z M54,35.4c0.1-1.4-2.3-2.8-6.4-4.1h-0.1c0,3-0.4,6-1.4,8.8C50.9,38.6,53.9,37,54,35.4
		C54,35.4,54,35.4,54,35.4z M47.2,28.2L47.2,28.2c2.5,0.8,4.9,1.8,7.1,3.2c0-0.2,0-0.3,0-0.5c-0.6-8.3-7.1-15.4-17.3-20.3
		C42.7,15.6,46.3,21.5,47.2,28.2C47.2,28.2,47.2,28.2,47.2,28.2z M28,27.4c0.2,5.8-0.8,11.5-2.9,16.9c5.9-0.7,11.7-1.8,17.4-3.2
		c1.5-3.3,2.2-7,2-10.7C39.1,29,33.6,28,28,27.4L28,27.4L28,27.4z"/>
	<path class="st2" d="M93.1,11.2c0,3.4-2.1,5.8-5.1,5.8h-4.6V5.6h5.1C91.2,5.6,93.1,8,93.1,11.2L93.1,11.2z M83.4,19h5.1
		c3.6,0,6.2,2.7,6.2,6.5c0,3.8-2.4,6-6.2,6h-5.1L83.4,19L83.4,19z M97.4,11c0-4.1-3.4-7.5-7.5-7.5c0,0,0,0,0,0H76v1.7h3.5v26.7H76
		v1.7h14.7c4.7,0,8.1-3.4,8.1-7.9c0.1-3-1.7-5.8-4.5-7.1c-1.2-0.6-2.4-0.9-3.7-1C94.4,17.4,97.4,14.4,97.4,11
		C97.4,11,97.4,11,97.4,11z M114,31.9h-4.4V19.8c2.5-3.1,3.3-3.8,4.1-3.8c0.5,0,1.1,0.4,2,1.3l2.6-3.2l-1.4-1.2
		c-0.4-0.3-0.8-0.4-1.3-0.4c-1.6,0-2.8,1-6.1,5.2v-5.1h-0.8l-6.6,1.8v1.2h4v16.4h-3.5v1.7H114L114,31.9L114,31.9z M133.7,20.1h-10.6
		c0.4-3.6,2.7-5.8,6.1-5.8c2.4,0,4.5,1.9,4.5,4.3c0,0.1,0,0.2,0,0.4C133.7,19,133.7,20.1,133.7,20.1z M137.5,21.9v-1.2
		c0-4.9-3.4-8.3-8.3-8.3c-5.7,0-9.8,4.6-9.8,11s4.1,10.8,9.9,10.8c2.6,0,4.2-0.5,7.7-2.5l-0.8-1.7c-2.6,1.6-3.8,2.1-5.6,2.1
		c-4.3,0-7.3-3.9-7.3-9.7v-0.5L137.5,21.9L137.5,21.9z M155.7,28.7c-0.6,0.5-1,0.8-1.3,1c-1.6,1.2-2.3,1.5-3.7,1.5
		c-3.7,0-6-3.1-6-8.2c0-5.2,3-8.8,7.4-8.8c2.7,0,3.6,1,3.6,3.8C155.7,18.1,155.7,28.7,155.7,28.7z M163.2,32.3v-1.3h-3.9V0h-0.9
		l-6.6,1.8V3h3.9v10.5c-1.2-0.8-2.7-1.2-4.1-1.1c-6,0-10.8,5.1-10.8,11.4c0,5.8,3.7,10.4,8.5,10.4c2.4,0,3.9-0.8,6.4-3.3v3.2h0.9
		L163.2,32.3L163.2,32.3z M177.5,29.1c-2,1.8-3.2,2.4-4.7,2.4c-1.6,0.1-3-1.1-3.1-2.7c0-0.1,0-0.3,0-0.4v-2.3l7.8-1.8
		C177.5,24.3,177.5,29.1,177.5,29.1z M184.5,32.8v-1.3H181v-14c0-3-2.7-5-6.7-5c-4.1,0-7.2,2-7.2,4.6c0,0.5,0.1,0.9,0.4,1.3l4.1-1.2
		v-2.2c0.9-0.5,1.8-0.8,2.8-0.8c1.7-0.1,3.1,1.3,3.2,3c0,0.1,0,0.1,0,0.2v5.2l-7.8,1.8c-2.2,0.5-3.7,2.5-3.7,4.7
		c0,2.9,2.3,5.2,5.1,5.3c0.1,0,0.3,0,0.4,0c2.4,0,4.1-1,6.1-3.3v0.5c0,1.7,0.8,2.7,2.2,2.7c0.5,0,1.1-0.1,1.6-0.3L184.5,32.8
		L184.5,32.8z M106.2,40.3H97V42h3.4v17.2c0,5.5-3.5,9.2-8.7,9.2c-5.1,0-8.3-3.6-8.3-9.1V42h3.4v-1.7H76V42h3.5v18.7
		c0,6,4.9,10.4,11.5,10.4c2.2,0,4.4-0.5,6.3-1.6c3.8-2.1,5.5-5.2,5.5-10.1V42h3.4L106.2,40.3L106.2,40.3z M131.6,68.7h-3.4V54.9
		c0-3.5-2.1-5.7-5.5-5.7c-2.9,0-4.9,1.2-8.3,5.2v-5.1h-0.8l-6.6,1.8v1.2h3.9v16.4h-3.5v1.7h10.3v-1.7h-3.4V56.9
		c4-4.6,5.1-5.4,7.1-5.4c2,0,3.2,1.5,3.2,3.9v13.4h-3.4v1.7h10.3L131.6,68.7z M145.2,68.7h-3.5V49.3h-0.8l-6.6,1.8v1.2h4v16.4h-3.5
		v1.7h10.4L145.2,68.7z M137.4,41.4c0,1.3,1.1,2.4,2.4,2.4c1.3,0,2.4-1.1,2.4-2.4s-1.1-2.4-2.4-2.4
		C138.5,39.1,137.4,40.1,137.4,41.4 M165.7,50.2h-7v1.7h3.1l-5.1,13l-5.4-13h3.2v-1.7h-8.8v1.7l1.9,0l8,19.1h0.9l7.4-19.1h1.9V50.2z
		 M180.8,57h-10.6c0.4-3.6,2.7-5.8,6.1-5.8c2.4,0,4.5,1.9,4.5,4.3c0,0.1,0,0.2,0,0.4V57z M184.6,58.7v-1.2c0-4.9-3.4-8.3-8.3-8.3
		c-5.7,0-9.8,4.7-9.8,11s4.1,10.8,9.9,10.8c2.7,0,4.2-0.6,7.7-2.5l-0.9-1.7c-2.5,1.6-3.8,2.1-5.6,2.1c-4.3,0-7.3-3.9-7.3-9.7v-0.5
		L184.6,58.7L184.6,58.7z M199.2,68.7h-4.4V56.6c2.5-3.1,3.3-3.8,4.2-3.8c0.5,0,1.1,0.4,2,1.3l2.6-3.2l-1.4-1.2
		c-0.4-0.3-0.8-0.4-1.3-0.4c-1.6,0-2.8,1-6.1,5.2v-5.1h-0.8l-6.6,1.8v1.2h3.9v16.4H188v1.7h11.3L199.2,68.7z M208.1,69.2
		c1.3,1.2,3.2,1.8,5.8,1.8c4.1,0,6.9-2.6,6.9-6.2c0-2.9-1.4-4.4-5.9-6.2c-5.5-2.2-5.8-2.5-5.8-4.4c0-2,1.6-3.2,3.9-3.2
		s4.5,1.5,4.5,3.2c0,0.5-0.1,1-0.3,1.5h2l1.1-6.6h-2l-0.3,1.6c-1.4-1.1-3.1-1.6-4.8-1.6c-4.2,0-7.1,2.4-7.1,6c0,2.9,1.6,4.6,5.9,6.2
		c4.8,1.9,6.1,2.9,6.1,4.7c0,1.8-1.9,3.1-4.4,3.1c-2.8,0-5.4-1.7-5.4-3.7v-1.2h-2.1v6.5h1.8L208.1,69.2L208.1,69.2z M234.5,68.7
		h-3.5V49.3h-0.8l-6.6,1.8v1.2h4v16.4h-3.5v1.7h10.4V68.7z M226.8,41.4c0,1.3,1.1,2.4,2.4,2.4c1.3,0,2.4-1.1,2.4-2.4
		s-1.1-2.4-2.4-2.4C227.8,39.1,226.8,40.1,226.8,41.4 M247.8,67.3c-1.6,0.9-2.1,1.1-3.1,1.1c-1.5,0-2.1-0.6-2.1-2.4V52.3h5.7v-2.1
		h-5.7v-6.4h-3.3v6.3l-4,1v1.2h4v14.1c0,2.8,1.6,4.4,4.2,4.4c1.7,0,2.6-0.4,5-2.4L247.8,67.3z M270,50.2h-7v1.7h3.1l-5.1,13l-5.5-13
		h3.2v-1.7h-8.9v1.7h1.9l7.4,17.7c-0.7,2-1.7,3.9-3,5.6c-1.4,1.8-2.3,2.5-4.8,3.9l3,3.1c0.8-1.1,1.4-1.9,1.8-2.5
		c1.7-2.6,3.1-5.3,4.2-8.2l7.7-19.5h1.9V50.2L270,50.2z M86.2,82.9c0,2-1.2,3.7-2.8,3.7s-2.7-1.6-2.7-3.7c0-2,1.2-3.6,2.7-3.6
		S86.2,80.9,86.2,82.9 M87.7,82.9c-0.1-2.4-2.1-4.2-4.4-4.2c-2.4,0.1-4.2,2.1-4.2,4.4c0.1,2.3,2,4.2,4.3,4.2
		C85.8,87.3,87.7,85.3,87.7,82.9 M95.7,80.4v-2H95v0.4h-5.7v0.7h1.4v7h-1.4v0.7h4.1v-0.7h-1.4v-3.2h2.3v0.9H95v-2.5h-0.7v0.9h-2.3
		v-3h3v0.9H95.7z M105.3,83.8h-2.7l1.4-3.2C104,80.6,105.3,83.8,105.3,83.8z M108.6,87.1v-0.7h-0.8l-3.3-8H104l-3.5,8h-0.7v0.7h2.5
		v-0.7h-1l0.9-2h3.3l0.8,2h-0.8v0.7C105.6,87.1,108.6,87.1,108.6,87.1z M117.3,81.2c0.1-1.3-1-2.4-2.3-2.5c-0.1,0-0.2,0-0.4,0h-4.4
		v0.7h1.4v7h-1.4v0.7h4.1v-0.7H113v-7h1.1c0.9-0.1,1.6,0.5,1.7,1.4c0,0.1,0,0.3,0,0.4c0.1,1-0.7,1.9-1.7,1.9c0,0-0.1,0-0.1,0
		c-0.1,0-0.2,0-0.4,0v0.6c0.3,0.1,0.5,0.1,0.8,0.1c1.5,0.1,2.8-1,2.9-2.5C117.3,81.3,117.3,81.3,117.3,81.2 M126,81.2
		c0.1-1.3-1-2.4-2.3-2.5c-0.1,0-0.2,0-0.4,0H119v0.7h1.4v7H119v0.7h4.1v-0.7h-1.4v-7h1c0.9-0.1,1.6,0.5,1.7,1.4c0,0.1,0,0.3,0,0.4
		c0.1,1-0.7,1.9-1.7,1.9c0,0-0.1,0-0.1,0c-0.1,0-0.2,0-0.4,0v0.6c0.3,0.1,0.5,0.1,0.8,0.1c1.5,0.1,2.8-1,2.9-2.5
		C126,81.3,126,81.3,126,81.2 M134.3,87.1v-1.8h-0.7v1.1h-3v-6.9h1.4v-0.7h-4.1v0.7h1.4v7h-1.4v0.7H134.3z M140.2,87.1v-0.7h-1.4v-7
		h1.4v-0.7h-4.1v0.7h1.4v7h-1.4v0.7H140.2z M149.1,87.1v-1.7h-0.7v1h-3.1v-3.2h2.3v0.9h0.7v-2.5h-0.7v0.9h-2.3v-3h3v0.9h0.7v-2h-0.7
		v0.4h-5.7v0.7h1.4v7h-1.4v0.7H149.1z M158.5,83c0,2-1.3,3.4-3,3.4h-1.4v-6.9h1.4C157.2,79.5,158.5,81,158.5,83 M160,83
		c0-2.3-2-4.2-4.3-4.2c0,0,0,0-0.1,0h-4.3v0.7h1.4v7h-1.4v0.7h4.3c2.3,0.1,4.3-1.7,4.4-4C160,83.1,160,83,160,83 M170.7,84.9
		c0-1.2-0.4-1.8-2-2.6l-1.3-0.8c-0.6-0.4-0.8-0.6-0.8-1.1c0-0.8,0.6-1.2,1.4-1.2c0.5,0,1.1,0.2,1.5,0.5v0.9h0.7v-2.1h-0.7V79
		c-0.5-0.3-1.1-0.4-1.7-0.4c-1.3-0.1-2.5,1-2.6,2.3c0,0,0,0,0,0.1c0,1.1,0.5,1.7,2.1,2.5c1.6,0.8,2,1.2,2,1.9c0,0.7-0.7,1.2-1.6,1.2
		c-0.7,0-1.3-0.2-1.8-0.6v-1h-0.7v2.3h0.7v-0.5c0.6,0.4,1.3,0.6,2,0.6C169.5,87.4,170.7,86.4,170.7,84.9
		C170.8,85,170.8,85,170.7,84.9 M180.1,86.8v-1.7h-0.7V86c-0.6,0.4-1.2,0.6-1.9,0.6c-2,0-3.5-1.7-3.5-3.6c0,0,0-0.1,0-0.1
		c-0.1-1.8,1.2-3.4,3-3.5c0.1,0,0.1,0,0.2,0c0.8,0,1.6,0.3,2.2,0.8v0.6h0.7v-2.2h-0.7v0.6c-0.7-0.4-1.4-0.5-2.1-0.5
		c-2.8,0-4.8,1.8-4.8,4.4s2,4.4,4.7,4.4C178.2,87.4,179.2,87.2,180.1,86.8 M186.2,87.1v-0.7h-1.4v-7h1.4v-0.7h-4.1v0.7h1.4v7h-1.4
		v0.7H186.2z M195,87.1v-1.7h-0.7v1h-3.1v-3.2h2.3v0.9h0.7v-2.5h-0.7v0.9h-2.3v-3h3v0.9h0.7v-2h-0.7v0.4h-5.7v0.7h1.4v7h-1.4v0.7
		H195z M206.8,79.5v-0.7h-3.6v0.7h1.4v5.2l-5.1-5.9h-2.3v0.7h1.3l0.4,0.5v6.5h-1.4v0.7h3.6v-0.7h-1.4v-5.3l5.2,6.2h0.5v-7.8
		L206.8,79.5z M215.3,86.8v-1.7h-0.7V86c-0.6,0.4-1.2,0.6-1.9,0.6c-2,0-3.5-1.7-3.5-3.6c0,0,0-0.1,0-0.1c-0.1-1.8,1.2-3.4,3-3.5
		c0.1,0,0.1,0,0.2,0c0.8,0,1.6,0.3,2.2,0.8v0.6h0.7v-2.2h-0.7v0.6c-0.7-0.4-1.4-0.5-2.1-0.5c-2.8,0-4.8,1.8-4.8,4.4s2,4.4,4.7,4.4
		C213.4,87.4,214.4,87.2,215.3,86.8 M223.8,87.1v-1.7h-0.7v1h-3.1v-3.2h2.3v0.9h0.7v-2.5h-0.7v0.9h-2.3v-3h3v0.9h0.7v-2H223v0.4
		h-5.7v0.7h1.4v7h-1.4v0.7H223.8z M231.4,84.9c0-1.2-0.4-1.8-2-2.6l-1.3-0.8c-0.6-0.4-0.8-0.6-0.8-1.1c0-0.7,0.6-1.2,1.3-1.2
		c0.1,0,0.1,0,0.2,0c0.5,0,1.1,0.2,1.5,0.5v0.9h0.7v-2.1h-0.7V79c-0.5-0.3-1.1-0.4-1.6-0.4c-1.3-0.1-2.5,1-2.6,2.3c0,0,0,0,0,0.1
		c0,1.1,0.5,1.7,2.1,2.5c1.6,0.8,2,1.2,2,1.9c0,0.7-0.6,1.2-1.6,1.2c-0.7,0-1.3-0.2-1.8-0.6v-1h-0.7v2.3h0.7v-0.5
		c0.6,0.4,1.3,0.6,2,0.6c1.4,0.1,2.5-0.9,2.6-2.3C231.4,85,231.4,85,231.4,84.9"/>
</g>
</svg>
